<?xml version="1.0" encoding="iso-8859-1"?>
<!-- Generator: Adobe Illustrator 19.0.0, SVG Export Plug-In . SVG Version: 6.00 Build 0)  -->
<svg version="1.1" id="bm_gouv" xmlns="http://www.w3.org/2000/svg" xmlns:xlink="http://www.w3.org/1999/xlink" x="0px" y="0px" viewBox="0 0 281.5 141.8" style="enable-background:new 0 0 281.5 141.8;" xml:space="preserve">
<style type="text/css">
	.st0{fill:#000091;}
	.st1{fill:#E1000F;}
	.st2{fill:#9D9D9C;}
	.st3{fill:none;}
</style>
	<g>
	<g>
		<g>
			<g>
				<path d="M18.3,64.8v-3.9h-5.8v-4.2H23v9.7c-2.1,2.8-5.7,4.7-10,4.7C5.6,71.1,0.5,65.5,0.5,59s4.9-12.1,12.2-12.1
					c4.2,0,7.6,1.9,9.6,4.6l-3.7,2.8c-1.3-1.9-3.4-3.1-6-3.1c-4.3,0-7.4,3.4-7.4,7.8s3.2,7.8,7.7,7.8C15.1,66.8,17,66,18.3,64.8z"></path>
				<path d="M50.7,59c0,6.5-4.9,12.1-12.1,12.1S26.4,65.5,26.4,59s4.9-12.1,12.2-12.1C45.8,46.9,50.7,52.5,50.7,59z M45.9,59
					c0-4.4-3.1-7.8-7.4-7.8s-7.4,3.4-7.4,7.8s3.1,7.8,7.4,7.8C42.9,66.8,45.9,63.4,45.9,59z"></path>
				<path d="M68.7,47.6h4.6v13.9c0,6-3.5,9.6-9.3,9.6c-5.7,0-9.3-3.6-9.3-9.6V47.6h4.6v14.3c0,3.1,1.7,4.9,4.6,4.9
					c2.8,0,4.6-1.8,4.6-4.9V47.6H68.7z"></path>
				<path d="M81.1,47.6l6.8,17.9l6.8-17.9h4.9l-8.7,22.9h-6.1l-8.6-22.9H81.1z"></path>
				<path d="M103.1,47.6h13.3v4h-8.7v5.3h7.4v4h-7.4v5.7h8.7v4h-13.3V47.6z"></path>
				<path d="M121.9,47.6h7c5,0,8.1,2.6,8.1,6.8c0,2.7-1.3,4.8-3.7,5.9l7.2,10.1h-5.6l-6.1-9.3h-2.4v9.3h-4.6V47.6H121.9z
					 M126.5,51.5v5.7h2.6c2,0,3.1-1,3.1-2.9c0-1.7-1.1-2.8-3.1-2.8C129.1,51.5,126.5,51.5,126.5,51.5z"></path>
				<path d="M143.4,47.6h6L159.6,64V47.6h4.6v22.9h-6L148,54v16.5h-4.6V47.6z"></path>
				<path d="M170.7,47.6H184v4h-8.7v5.3h7.4v4h-7.4v5.7h8.7v4h-13.3V47.6z"></path>
				<path d="M189.4,47.6h5.9l5.5,9.4l5.5-9.4h5.9v22.9h-4.6V54.2l-5.1,8.4h-3.3l-5.1-8.4v16.3h-4.6L189.4,47.6L189.4,47.6z"></path>
				<path d="M218.6,47.6h13.3v4h-8.7v5.3h7.4v4h-7.4v5.7h8.7v4h-13.3L218.6,47.6L218.6,47.6z"></path>
				<path d="M237.3,47.6h6L253.5,64V47.6h4.6v22.9h-6L241.9,54v16.5h-4.6V47.6z"></path>
				<path d="M262.2,47.6H281v4.2h-7.1v18.7h-4.6V51.8h-7.1V47.6z"></path>
			</g>
		</g>
		<g>
			<path d="M76.9,133.7c0.6,0,1.2,0.5,0.9,1.7l-2.9,0.7C75.4,134.7,76.3,133.7,76.9,133.7 M78.5,138.3h-0.6
				c-0.7,0.9-1.5,1.5-2.3,1.5s-1.2-0.5-1.2-1.5c0-0.4,0.1-0.9,0.1-1.3l4.6-1.5c0.9-2.1-0.2-3.1-1.5-3.1c-2.2,0-4.7,3.7-4.7,6.9
				c0,1.4,0.7,2.2,1.8,2.2C76.1,141.6,77.5,140.3,78.5,138.3 M77.6,131.6l3.3-3.1v-0.4h-1.8l-2,3.4h0.5V131.6z M67.6,133.7h1.5
				l-2.5,6.7c-0.2,0.6,0.1,1.1,0.7,1.1c1.4,0,3.6-1.4,4.4-3.3h-0.4c-0.6,0.7-1.8,1.5-2.8,1.7l2.2-6.3H73l0.3-1h-2.2l0.9-2.4h-0.9
				l-1.6,2.4l-1.9,0.3V133.7z M65.5,133.4c0.2-0.6-0.2-1-0.6-1c-1.3,0-2.9,1.2-3.6,2.9h0.4c0.4-0.6,1.2-1.3,1.9-1.4l-2.6,6.7
				c-0.2,0.6,0.2,1,0.6,1c1.3,0,2.8-1.2,3.4-2.9h-0.4c-0.4,0.6-1.2,1.3-1.9,1.4L65.5,133.4z M66,130.1c0.6,0,1.1-0.5,1.1-1.1
				s-0.5-1.1-1.1-1.1c-0.6,0-1.1,0.5-1.1,1.1C64.9,129.6,65.3,130.1,66,130.1 M51.2,140.3c-0.3,0.8,0,1.2,0.8,1.2
				c0.5,0,0.7-0.1,0.8-0.6l1.8-4.7c0.8-1,2.5-2.1,3.2-2.1c0.5,0,0.4,0.4,0.1,1l-2.7,5.3c-0.3,0.5,0.1,1.1,0.7,1.1
				c1.3,0,2.9-1.2,3.6-2.9h-0.4c-0.4,0.6-1.2,1.3-1.9,1.4l2.3-4.8c0.3-0.6,0.5-1.2,0.5-1.6c0-0.8-0.4-1.3-1.2-1.3
				c-1.2,0-2.3,1.3-3.7,2.9V134c0-0.9-0.3-1.7-1.1-1.7c-0.5,0-1,0.4-1.4,1.1v0.2c0.9-0.1,1.3,1.3,0.6,2.6L51.2,140.3z M51.1,134.5
				c0.3-1.1,0.2-2-0.7-2c-1,0-1.2,0.8-2.2,2.9v-1.2c0-0.9-0.3-1.7-1.1-1.7c-0.9,0-1.8,1.5-2.5,2.9H45c0.5-0.7,0.9-1,1.2-1
				c0.4,0,0.6,0.6,0,2l-1.8,4c-0.3,0.8,0,1.2,0.8,1.2c0.5,0,0.7-0.1,0.8-0.6l1.8-4.7c0.5-0.6,1-1.2,1.5-1.8L51.1,134.5L51.1,134.5z
				 M40.8,133.7c0.6,0,1.2,0.5,0.9,1.7l-2.9,0.7C39.3,134.7,40.2,133.7,40.8,133.7 M42.4,138.3h-0.6c-0.7,0.9-1.5,1.5-2.3,1.5
				s-1.2-0.5-1.2-1.5c0-0.4,0.1-0.9,0.1-1.3l4.6-1.5c0.9-2.1-0.2-3.1-1.5-3.1c-2.2,0-4.7,3.7-4.7,6.9c0,1.4,0.7,2.2,1.8,2.2
				C40,141.6,41.4,140.3,42.4,138.3 M31.5,133.7H33l-2.5,6.7c-0.2,0.6,0.1,1.1,0.7,1.1c1.4,0,3.6-1.4,4.4-3.3h-0.4
				c-0.6,0.7-1.8,1.5-2.8,1.7l2.2-6.3h2.3l0.3-1H35l0.9-2.4H35l-1.6,2.4l-1.9,0.3C31.5,132.9,31.5,133.7,31.5,133.7z M23,138.9
				c0-2.1,2.3-4.9,3.6-4.9c0.3,0,0.6,0,0.8,0.1l-1.3,3.6c-0.8,0.9-2,2.1-2.5,2.1C23.2,139.8,23,139.6,23,138.9 M30.1,132l-0.7-0.1
				l-0.8,0.8h-0.2c-3.8,0-7.1,4.3-7.1,7.4c0,0.9,0.5,1.4,1.4,1.4c1,0,2-1.4,3.1-2.9l-0.1,0.5c-0.1,1.5,0.3,2.4,1.1,2.4
				c0.9,0,1.8-1.5,2.5-2.9h-0.4c-0.5,0.7-0.9,1-1.2,1c-0.4,0-0.6-0.6,0-2L30.1,132z M21.9,134.5c0.3-1.1,0.2-2-0.7-2
				c-1,0-1.2,0.8-2.2,2.9v-1.2c0-0.9-0.3-1.7-1.1-1.7c-0.9,0-1.8,1.5-2.5,2.9h0.4c0.5-0.7,0.9-1,1.2-1c0.4,0,0.6,0.6,0,2l-1.8,4
				c-0.3,0.8,0,1.2,0.8,1.2c0.5,0,0.7-0.1,0.8-0.6l1.8-4.7c0.5-0.6,1-1.2,1.5-1.8L21.9,134.5L21.9,134.5z M9,141.2l0.2-0.5
				c-2.2-0.4-2.5-0.4-1.6-2.9l0.9-2.5H11c1.1,0,1.1,0.5,1,1.7h0.6l1.5-4h-0.6c-0.6,1-1,1.7-2.2,1.7H8.9l1.3-3.5
				c0.4-1.1,0.6-1.4,2.1-1.4h1.1c1.6,0,1.7,0.4,1.7,2h0.6l0.5-2.8H6.9l-0.2,0.5c1.8,0.4,2,0.5,1.1,2.9l-2,5.5
				c-0.8,2.3-1.2,2.5-3.3,2.9l-0.2,0.5L9,141.2L9,141.2z"></path>
			<path d="M54.5,112.7c0.6,0,1.2,0.5,0.9,1.7l-2.9,0.7C53,113.7,53.8,112.7,54.5,112.7 M56.1,117.3h-0.6c-0.7,0.9-1.5,1.5-2.3,1.5
				s-1.2-0.5-1.2-1.5c0-0.4,0.1-0.9,0.1-1.3l4.6-1.5c0.9-2.1-0.2-3.1-1.5-3.1c-2.2,0-4.7,3.7-4.7,6.9c0,1.4,0.7,2.2,1.8,2.2
				C53.7,120.6,55,119.4,56.1,117.3 M55.1,110.6l3.3-3.1v-0.4h-1.8l-2,3.4h0.5V110.6z M45.1,112.7h1.5l-2.5,6.7
				c-0.2,0.6,0.1,1.1,0.7,1.1c1.4,0,3.6-1.4,4.4-3.3h-0.4c-0.6,0.7-1.8,1.5-2.8,1.7l2.2-6.3h2.3l0.3-1h-2.2l0.9-2.4h-0.9l-1.6,2.4
				l-1.9,0.3V112.7z M43,112.4c0.2-0.6-0.2-1-0.6-1c-1.3,0-2.9,1.2-3.6,2.9h0.4c0.4-0.6,1.2-1.3,1.9-1.4l-2.6,6.7
				c-0.2,0.6,0.2,1,0.6,1c1.3,0,2.8-1.2,3.4-2.9h-0.4c-0.4,0.6-1.2,1.3-1.9,1.4L43,112.4z M43.5,109.1c0.6,0,1.1-0.5,1.1-1.1
				s-0.5-1.1-1.1-1.1s-1.1,0.5-1.1,1.1C42.4,108.6,42.9,109.1,43.5,109.1 M34.6,119.1l4.7-12.3l-0.2-0.2l-2.9,0.3v0.4l0.6,0.4
				c0.5,0.4,0.4,0.8-0.1,2l-3.7,9.6c-0.3,0.5,0.1,1.1,0.7,1.1c1.3,0,2.8-1.2,3.4-2.9h-0.4C36.2,118.3,35.2,119,34.6,119.1 M25.7,118
				c0-2.1,2.3-4.9,3.6-4.9c0.3,0,0.6,0,0.8,0.1l-1.3,3.6c-0.8,0.9-2,2.1-2.5,2.1C25.9,118.9,25.7,118.6,25.7,118 M32.7,111.1L32,111
				l-0.8,0.8H31c-3.8,0-7.1,4.3-7.1,7.4c0,0.9,0.5,1.4,1.4,1.4c1,0,2-1.4,3.1-2.9l-0.1,0.5c-0.1,1.5,0.3,2.4,1.1,2.4
				c0.9,0,1.8-1.5,2.5-2.9h-0.4c-0.5,0.7-0.9,1-1.2,1c-0.4,0-0.6-0.6,0-2L32.7,111.1z M15.6,122.2c0-0.9,0.9-1.4,2.1-1.9
				c0.4,0.2,1,0.4,1.8,0.7c1.3,0.4,1.8,0.6,1.8,1c0,0.8-1.4,1.4-3.3,1.4C16.4,123.4,15.6,123.1,15.6,122.2 M19.1,116.8
				c-0.6,0-0.8-0.5-0.8-1c0-1.5,0.8-3.7,2.1-3.7c0.6,0,0.8,0.5,0.8,1C21.2,114.6,20.4,116.8,19.1,116.8 M22.8,121.4
				c0-1.1-1-1.5-2.5-1.9c-1.3-0.4-1.9-0.5-1.9-1c0-0.4,0.3-0.8,0.9-1.1c2.2-0.1,3.6-2.1,3.6-3.8c0-0.4-0.1-0.7-0.2-0.9h1.9l0.3-1h-3
				c-0.4-0.2-0.8-0.3-1.2-0.3c-2.3,0-3.8,2-3.8,3.7c0,1.3,0.8,2,1.8,2.2c-1.1,0.5-1.7,1.1-1.7,1.7c0,0.4,0.1,0.7,0.5,0.9
				c-2.5,0.7-3.5,1.6-3.5,2.8s1.5,1.6,3.3,1.6C20.2,124.4,22.8,122.8,22.8,121.4 M11,114.2c1.1,0,1.1,0.5,1,1.7h0.6l1.5-4h-0.6
				c-0.6,1-1,1.7-2.2,1.7H8.9l1.2-3.4c0.4-1.1,0.6-1.3,2.1-1.3h1.1c1.6,0,1.7,0.4,1.7,2h0.6l0.5-2.8H6.8l-0.2,0.5
				c1.8,0.4,2,0.5,1.1,2.9l-2,5.5c-0.8,2.3-1.2,2.5-3.3,2.9l-0.2,0.5h10.3l1.8-2.9h-0.7c-1.2,1.1-2.7,2.2-4.7,2.2
				c-2.7,0-2.5-0.1-1.6-2.6l1-2.7H11V114.2z M12.4,107.2l3.3-2.2v-0.4h-2l-1.8,2.6H12.4z"></path>
			<path d="M53.4,91.7c0.6,0,1.2,0.5,0.9,1.7l-2.9,0.7C51.9,92.7,52.7,91.7,53.4,91.7 M55,96.4h-0.6c-0.7,0.9-1.5,1.5-2.3,1.5
				s-1.2-0.5-1.2-1.5c0-0.4,0.1-0.9,0.1-1.3l4.6-1.5c0.9-2.1-0.2-3.1-1.5-3.1c-2.2,0-4.7,3.7-4.7,6.9c0,1.4,0.7,2.2,1.8,2.2
				C52.6,99.6,53.9,98.4,55,96.4 M54,89.6l3.3-3.1v-0.4h-1.8l-2,3.4L54,89.6L54,89.6z M44.4,91.8h1.2l-2.5,6.7
				c-0.2,0.6,0.1,1.1,0.7,1.1c1.4,0,3.6-1.4,4.4-3.3h-0.4C47.2,97,46,97.8,45,98l2.2-6.3h2.3l0.3-1h-2.2l0.9-2.4h-0.9L46,90.7
				L44.4,91V91.8z M43.2,92.5c0.3-1.1,0.2-2-0.7-2c-1,0-1.2,0.8-2.2,2.9v-1.2c0-0.9-0.3-1.7-1.1-1.7c-0.9,0-1.8,1.5-2.5,2.9h0.5
				c0.5-0.7,0.9-1,1.2-1c0.4,0,0.6,0.6,0,2l-1.8,4c-0.3,0.8,0,1.2,0.8,1.2c0.5,0,0.7-0.1,0.8-0.6l1.8-4.7c0.5-0.6,1-1.2,1.5-1.8
				L43.2,92.5L43.2,92.5z M32.9,91.7c0.6,0,1.2,0.5,0.9,1.7l-2.9,0.7C31.4,92.7,32.2,91.7,32.9,91.7 M34.5,96.4h-0.6
				c-0.7,0.9-1.5,1.5-2.3,1.5s-1.2-0.5-1.2-1.5c0-0.4,0.1-0.9,0.1-1.3l4.6-1.5c0.9-2.1-0.2-3.1-1.5-3.1c-2.2,0-4.7,3.7-4.7,6.9
				c0,1.4,0.7,2.2,1.8,2.2C32.1,99.6,33.4,98.4,34.5,96.4 M23.1,98.2c-0.5,0-1.1-0.4-1.1-0.8c0-0.1,0.2-0.6,0.5-1.3l0.8-2
				c0.8-1,2-2,2.7-2c0.4,0,0.7,0.3,0.7,0.9C26.7,94.9,25,98.2,23.1,98.2 M28.4,92.3c0-1.4-0.5-1.9-1.4-1.9c-1.2,0-2.3,1.2-3.4,2.8
				l2.8-7.4l-0.2-0.2l-2.9,0.3v0.4l0.6,0.4c0.5,0.4,0.4,0.8-0.1,2l-3,7.8c-0.2,0.6-0.5,1.2-0.5,1.4c0,0.8,1.1,1.6,2.1,1.6
				C24.6,99.6,28.4,95.5,28.4,92.3 M19.3,91.4c0.2-0.6-0.2-1-0.6-1c-1.3,0-2.9,1.2-3.6,2.9h0.4c0.4-0.6,1.2-1.3,1.9-1.4l-2.6,6.7
				c-0.2,0.6,0.2,1,0.6,1c1.3,0,2.8-1.2,3.4-2.9h-0.4c-0.4,0.6-1.2,1.3-1.9,1.4L19.3,91.4z M19.7,88.1c0.6,0,1.1-0.5,1.1-1.1
				s-0.5-1.1-1.1-1.1s-1.1,0.5-1.1,1.1S19.1,88.1,19.7,88.1 M13,87H6.9l-0.2,0.5c1.8,0.4,2,0.5,1.1,2.9l-2,5.5
				c-0.8,2.3-1.2,2.5-3.3,2.9l-0.2,0.5h9.3l2-3.6h-0.7c-1.1,1.3-2.5,2.8-4.5,2.8c-1.6,0-1.7-0.3-0.9-2.6l2-5.5
				c0.8-2.3,1.2-2.5,3.3-2.9L13,87z"></path>
		</g>
		<g>
			<path class="st0" d="M36.9,28.8c0.3-0.3,0.7-0.7,1-1l0,0c0.6-0.7,1.2-1.3,1.9-2c0.2-0.2,0.4-0.4,0.6-0.5c0.1-0.1,0.1-0.2,0.1-0.2
				c-0.3,0.1-0.5,0.3-0.7,0.5c-0.1,0-0.1-0.1-0.1-0.1c0.2-0.2,0.4-0.3,0.6-0.5l0,0c-0.1,0-0.1-0.1-0.1-0.1c-0.7-0.1-1.3,0.4-1.8,0.9
				c-0.1,0-0.2-0.2-0.3-0.2c-0.9,0.3-1.5,1-2.4,1.4c0-0.1,0-0.1,0-0.1c-0.3,0.1-0.7,0.3-1,0.4c-0.5,0.1-1,0.1-1.4,0.1
				c-0.7,0.1-1.4,0.2-2.1,0.4c0,0,0,0-0.1,0c-0.4,0.1-0.7,0.2-1.1,0.4l0,0l-0.1,0.1c-0.1,0.1-0.2,0.3-0.4,0.3
				c-0.4,0.2-0.6,0.5-1,0.7h-0.1c-0.3,0.3-0.6,0.6-0.9,0.9c0,0-0.1,0-0.2,0l0,0c0,0,0,0,0-0.1s0.1-0.2,0.1-0.2
				c0.1-0.1,0.1-0.2,0.2-0.3c0.1-0.1,0.2-0.2,0.2-0.3v-0.1c0,0,0,0-0.1,0c0.3-0.3,0.6-0.5,1-0.7l0,0c0,0-0.1,0-0.1-0.1
				s0.1-0.1,0.1-0.2c0,0,0,0,0-0.1l0,0c-0.1,0.1-0.2,0.1-0.3,0.2c-0.1,0.1-0.2,0.4-0.5,0.4h-0.1c0,0,0,0-0.1,0l0,0l0,0l0,0l0,0l0,0
				l0,0c0,0,0,0,0-0.1c0,0,0,0,0-0.1c0,0,0-0.1,0.1-0.1c0,0,0,0,0-0.1c0,0,0-0.1,0.1-0.1v-0.1c0.1-0.1,0.2-0.3,0.4-0.3l0,0
				c0.2-0.1,0.4-0.2,0.7-0.4l0.1-0.1c-0.3,0.1-0.6,0.3-0.9,0.5c0,0-0.1,0-0.1,0.1c0,0-0.1,0-0.1-0.1l0,0c0.1-0.1,0.2-0.2,0.3-0.3
				c0.1,0,0.1,0,0.1,0.1c1.8-1.4,4.4-1.1,6.5-1.8c0.2-0.1,0.3-0.2,0.5-0.3c0.3-0.1,0.5-0.4,0.9-0.6c0.5-0.3,0.8-0.7,1-1.3
				c0-0.1-0.1-0.1-0.1-0.1c-0.7,0.8-1.6,1.4-2.5,1.9c-1.2,0.6-2.5,0.5-3.8,0.7C31,26,31.1,26,31.2,26c0-0.2,0.1-0.2,0.2-0.3
				c0.1,0,0.1,0,0.2,0c0.1,0,0.1-0.1,0.1-0.1c0.1,0,0.3-0.1,0.2-0.1c-0.2-0.2-0.5,0.2-0.8,0c0.1-0.1,0.1-0.3,0.2-0.3
				c0.1,0,0.2,0,0.2,0c0-0.1,0.1-0.2,0.1-0.2c0.9-0.5,1.7-0.9,2.5-1.4c-0.2,0-0.3,0.2-0.5,0.1c0.1,0,0-0.2,0.1-0.2
				c0.6-0.2,1.1-0.5,1.8-0.7c-0.2,0-0.4,0.2-0.6,0c0.1-0.1,0.2-0.2,0.3-0.2c0-0.1,0-0.1,0-0.2c0-0.1,0.1-0.1,0.1-0.1
				c-0.1,0-0.1-0.1-0.1-0.1c0.1-0.1,0.2-0.1,0.3-0.2c-0.1,0-0.2,0-0.2-0.1c0.2-0.2,0.5-0.3,0.7-0.3c-0.1-0.1-0.2,0-0.2-0.1
				s0.1-0.1,0.1-0.1c-0.1,0-0.1,0-0.1,0c0.4-0.2,0.4-0.4,0.4-0.4c0.3-0.4,0.3-0.9,0.5-1.4c-0.1,0-0.1,0-0.1-0.1
				c-0.6,0.6-1.5,0.9-2.4,1.1c-0.1,0-0.2,0-0.3,0c-0.3,0.1-0.7,0.1-1-0.1c-0.2-0.1-0.3-0.3-0.6-0.5c-0.5-0.3-0.9-0.5-1.4-0.7
				c-1.4-0.5-2.9-0.7-4.4-0.6c0.6-0.3,1.3-0.4,2-0.6c1-0.3,1.9-0.6,2.9-0.6c-0.2-0.1-0.4,0-0.6,0c-0.8-0.1-1.6,0.2-2.5,0.3
				c-0.6,0.1-1.1,0.3-1.7,0.5c-0.3,0.1-0.5,0.5-0.9,0.4c0,0,0-0.1,0-0.2c0.6-0.7,1.3-1.4,2.2-1.4c1-0.2,2,0,3,0.1
				c0.7,0.1,1.4,0.2,2.2,0.4c0.3,0,0.3,0.5,0.6,0.5c0.3,0.1,0.7,0,1,0.2c0-0.1-0.1-0.2,0-0.3c0.2-0.2,0.5,0.1,0.7-0.1
				c0.5-0.3-0.4-0.8-0.6-1.2c0-0.1,0.1-0.1,0.1-0.1c0.5,0.4,0.8,0.9,1.4,1.1c0.3,0.1,1,0.3,0.9-0.1c-0.3-0.6-0.9-1.1-1.3-1.7
				c0-0.1,0-0.2,0-0.2c-0.1,0-0.1-0.1-0.2-0.1c0-0.1,0-0.2,0-0.2c-0.2-0.1-0.2-0.3-0.3-0.5c-0.2-0.3-0.1-0.7-0.2-1
				c-0.1-0.3-0.2-0.6-0.2-1c-0.2-1-0.4-1.8-0.5-2.8c-0.1-1.1,0.6-2,1.1-2.9c0.4-0.7,0.9-1.4,1.6-1.8c0.2-0.7,0.6-1.3,1.1-1.8
				c0.5-0.6,1.2-0.9,1.8-1.1c0.8-0.4,1.5-0.6,1.5-0.6H2.4v30.4h27.9c1.1-0.8,2.2-1.2,3.7-1.9C34.7,30.1,36.4,29.3,36.9,28.8z
				 M28.1,24.7c-0.1,0-0.3,0.1-0.3-0.1c0.1-0.3,0.5-0.3,0.7-0.4c0.1-0.1,0.3-0.2,0.4-0.1c0.1,0.2,0.3,0.1,0.4,0.2
				C29,24.7,28.5,24.5,28.1,24.7z M19.3,23.4L19.3,23.4c0.6-1.1,1.2-2,1.7-3c0.7-0.4,1.4-1,2-1.6c1-1,2-2,3.2-2.5
				c0.5-0.2,1-0.1,1.5,0.1c-0.2,0.2-0.5,0.2-0.7,0.3c-0.1,0-0.1,0-0.2-0.1c0.1-0.1,0.1-0.1,0.1-0.2c-0.6,0.6-1.4,0.9-1.8,1.7
				c-0.3,0.6-0.6,1.3-1.3,1.5c-0.2,0.1,0.1-0.2-0.1-0.1C21.9,20.5,20.7,21.9,19.3,23.4z M24.1,19.6c-0.1,0.1-0.1,0.1-0.2,0.2
				c-0.1,0.1-0.1,0.2-0.2,0.2c-0.1,0-0.1,0-0.1-0.1c0.1-0.2,0.2-0.5,0.5-0.5C24.1,19.5,24.1,19.6,24.1,19.6z M26.7,28.2
				c0,0.1-0.1,0.1-0.1,0.2c0.1,0,0.1,0,0.1,0.1c-0.1,0.1-0.3,0.2-0.4,0.3c0,0,0,0-0.1,0c-0.1,0.1-0.1,0.1-0.2,0.2
				c-0.1,0.1-0.4,0-0.3-0.1c0.1-0.1,0.3-0.3,0.4-0.4c0.1-0.1,0.2-0.1,0.2-0.2l0.1-0.1C26.5,28.1,26.8,28.1,26.7,28.2z M25.7,27.7
				C25.7,27.7,25.7,27.8,25.7,27.7c-0.2,0.2-0.4,0.3-0.7,0.4c-0.2,0.1-0.5,0.3-0.8,0.4l0,0h-0.1c-0.2,0.1-0.4,0.3-0.6,0.4L23.4,29
				l0,0l0,0l-0.1,0.1l0,0l0,0l-0.1,0.1c0,0,0,0.1-0.1,0.1H23l0,0c0,0-0.1,0-0.1,0.1h-0.1l0,0l0,0c-0.1,0.1-0.1,0.1-0.2,0.2
				c-0.1,0.1-0.2,0.2-0.3,0.4l0,0l0,0l0,0l0,0l0,0c0,0,0,0,0,0.1l0,0l0,0l0,0l0,0V30l0,0l0,0c0.1-0.1,0.1-0.1,0.2-0.2l0,0
				c0,0,0,0,0.1-0.1l0.1-0.1l0,0c0.1-0.1,0.1-0.2,0.2-0.2l0,0l0,0l0.1-0.1c0,0,0-0.1,0.1-0.1l0,0l0,0l0,0c0,0,0-0.1,0.1-0.1l0,0l0,0
				c0,0,0,0,0-0.1l0,0l0,0v-0.1l0,0c0.1-0.1,0.1-0.2,0.2-0.3l0,0c-0.1,0.1-0.1,0.1-0.2,0.2c-0.1,0-0.2,0-0.1-0.1
				c0.1,0,0.1-0.1,0.1-0.1l0,0c0.1-0.1,0.2-0.2,0.3-0.3c0.1,0,0.1-0.1,0.2-0.1l0,0c0-0.1,0.1-0.1,0.1-0.1l0,0
				c0.5-0.5,1.5-0.5,2.2-0.8c0.3-0.1,0.6,0.1,0.9,0c0.2,0,0.3,0,0.5,0.1C26.7,27.1,26.2,27.4,25.7,27.7z M26.9,23.7
				c-0.1-0.1,0.2,0,0.2-0.1c-0.2,0-0.3,0-0.5,0c-0.1,0-0.1-0.1-0.1-0.1c-0.3,0.1-0.6,0.2-0.9,0.2c-0.4,0.1-0.7,0.4-1.2,0.5
				c-0.6,0.2-1.1,0.7-1.8,1c-0.1,0-0.1-0.1-0.1-0.1c0.1-0.2,0.3-0.2,0.4-0.4c0-0.1,0-0.1-0.1-0.1c0.5-0.6,1.1-1,1.7-1.5
				c0-0.1,0-0.1,0-0.2c0.2-0.2,0.5-0.3,0.6-0.6c0.1-0.2,0.3-0.4,0.6-0.5c-0.1-0.1-0.2-0.1-0.2-0.2c-0.2,0-0.5,0.1-0.7-0.1
				c0.1-0.1,0.2-0.2,0.4-0.2c0,0-0.1,0-0.1-0.1c-0.1-0.1,0.1-0.2,0.3-0.3s0.5-0.1,0.7-0.2c-0.4-0.1-0.9,0.1-1.3-0.1
				c0.3-0.7,0.7-1.4,1.4-1.7c0.1,0,0.2,0,0.2,0.1c0,0.3-0.2,0.5-0.5,0.6c0.5,0.1,0.9,0.1,1.4,0.3C27.2,20,27.1,20,27.1,20
				c0.3,0.2,0.6,0.1,0.9,0.3c-0.2,0.2-0.3,0-0.5,0c1.8,0.5,3.7,0.9,5.2,2.1c-1.3,0.6-2.6,0.9-4,1.2c-0.2,0-0.3,0-0.5-0.1
				c0,0.1,0,0.2-0.1,0.2c-0.2,0-0.4,0-0.6,0.1C27.4,23.9,27.1,23.9,26.9,23.7z"></path>
			<g>
				<path class="st1" d="M86,2H53.3c0,0,0.1,0,0.3,0.1c0.3,0.1,0.6,0.3,0.8,0.4c0.4,0.2,0.8,0.5,1.1,0.9c0.1,0.2,0.3,0.5,0.2,0.7
					c-0.1,0.3-0.2,0.7-0.5,0.9S54.4,5.2,54,5.1c-0.2,0-0.5-0.1-0.7-0.1c0.9,0.3,1.7,0.7,2.2,1.6c0.1,0.1,0.3,0.2,0.5,0.2
					c0.1,0,0.1,0.1,0.1,0.2c-0.1,0.1-0.2,0.2-0.2,0.3c0.1,0,0.1,0,0.2,0c0.3-0.1,0.2-0.7,0.6-0.5C57,7,57.1,7.4,56.9,7.7
					c-0.2,0.2-0.5,0.4-0.7,0.6c-0.1,0.1-0.1,0.3,0,0.4c0.2,0.2,0.2,0.5,0.3,0.7c0.2,0.4,0.2,0.9,0.4,1.3c0.2,0.9,0.5,1.7,0.4,2.6
					c0,0.5-0.2,0.9-0.1,1.3c0.1,0.5,0.4,0.8,0.6,1.2c0.2,0.3,0.5,0.6,0.6,0.9c0.3,0.6,1,1.1,0.7,1.8c-0.2,0.4-0.8,0.3-1.2,0.6
					c-0.3,0.3-0.1,0.7,0.1,1c0.3,0.5-0.3,0.9-0.7,1c0.1,0.2,0.3,0.1,0.4,0.2c0.1,0.3,0.3,0.5,0.2,0.7c-0.2,0.3-0.9,0.5-0.6,1
					c0.2,0.4,0.1,0.8-0.1,1.3s-0.6,0.7-1,0.9c-0.3,0.1-0.7,0.1-1.1,0.1c-0.1-0.1-0.2-0.1-0.3-0.1c-1-0.1-2-0.4-2.9-0.4
					c-0.3,0.1-0.6,0.1-0.8,0.2c-0.3,0.2-0.5,0.4-0.7,0.6l0,0l-0.1,0.1c0,0,0,0.1-0.1,0.1c0,0,0,0,0,0.1c-0.2,0.2-0.3,0.4-0.5,0.7
					l0,0v0.1c-0.2,0.3-0.3,0.7-0.4,1.1c-0.4,1.3-0.2,2.4,0.1,2.7c0.1,0.1,1.9,0.6,3.2,1.2c0.6,0.3,1,0.5,1.4,0.7h32.1V2H86z"></path>
			</g>
			<path class="st2" d="M55.2,13.1c0.2,0.1,0.6,0.1,0.6,0.2c-0.1,0.5-0.8,0.6-1.1,1h-0.2c-0.2,0.1-0.1,0.4-0.3,0.4
				c-0.2-0.1-0.3,0-0.5,0.1c0.2,0.2,0.5,0.4,0.9,0.3c0.1,0,0.2,0.1,0.2,0.2c0,0,0.1,0,0.1-0.1c0.1,0,0.1,0,0.1,0.1v0.2
				c-0.2,0.2-0.5,0.1-0.7,0.2c0.5,0.1,0.9,0.1,1.3,0c0.3-0.1,0-0.7,0.2-1c-0.1,0,0-0.2-0.1-0.2c0.1-0.1,0.2-0.3,0.3-0.3
				c0.1,0,0.3-0.1,0.3-0.2c0-0.1-0.2-0.2-0.2-0.3c0.3-0.2,0.6-0.6,0.5-0.9c-0.1-0.2-0.5-0.2-0.8-0.3s-0.6,0-1,0.1
				c-0.3,0-0.6,0.2-0.9,0.2c-0.4,0.1-0.7,0.3-1.1,0.6c0.4-0.2,0.8-0.2,1.3-0.3C54.6,13.1,54.9,13,55.2,13.1z"></path>
		</g>
	</g>
		<rect x="-27.9" y="-28.4" class="st3" width="339.3" height="200"></rect>
		<rect x="2.4" y="2" class="st3" width="278.6" height="139.3"></rect>
</g>
</svg>
